<svg xmlns="http://www.w3.org/2000/svg" viewBox="0 0 100 100">
  <circle cx="50" cy="50" r="45" fill="#D2691E"/>
  <circle cx="50" cy="50" r="40" fill="#F4A460"/>
  <ellipse cx="35" cy="40" rx="5" ry="4" fill="#228B22" opacity="0.8"/>
  <ellipse cx="55" cy="35" rx="4" ry="3" fill="#228B22" opacity="0.8"/>
  <ellipse cx="45" cy="55" rx="5" ry="3" fill="#228B22" opacity="0.7"/>
  <ellipse cx="62" cy="50" rx="4" ry="3" fill="#228B22" opacity="0.8"/>
  <path d="M30 45 Q35 42 40 46" stroke="#DC143C" stroke-width="2" fill="none" opacity="0.7"/>
  <path d="M45 38 Q52 35 58 40" stroke="#DC143C" stroke-width="2" fill="none" opacity="0.7"/>
  <path d="M38 55 Q45 52 52 56" stroke="#DC143C" stroke-width="2" fill="none" opacity="0.7"/>
  <path d="M50 48 Q57 45 63 50" stroke="#DC143C" stroke-width="2" fill="none" opacity="0.7"/>
  <circle cx="38" cy="48" r="2" fill="#FFD700" opacity="0.6"/>
  <circle cx="55" cy="44" r="2" fill="#FFD700" opacity="0.6"/>
  <circle cx="48" cy="58" r="2" fill="#FFD700" opacity="0.6"/>
  <circle cx="60" cy="55" r="1.5" fill="#FFD700" opacity="0.6"/>
  <line x1="15" y1="75" x2="50" y2="50" stroke="#666" stroke-width="3" stroke-linecap="round"/>
  <rect x="8" y="72" width="12" height="8" rx="2" fill="#888" transform="rotate(-35 14 76)"/>
</svg>
